<svg width="379" height="297" viewBox="0 0 379 297" fill="none" xmlns="http://www.w3.org/2000/svg">
<path d="M130.956 0.798889C85.6199 7.45801 48.66 24.9382 24.9951 51.2972C14.3592 63.0894 8.37645 73.078 3.72323 87.0899C-1.32883 101.934 -1.19589 121.912 3.85618 137.449C5.85042 143.554 9.70594 152.294 12.3649 156.872C18.3476 167.138 34.4345 184.341 45.2034 191.832C65.1457 205.844 93.5968 217.359 119.389 221.937C125.106 223.047 125.505 224.85 121.782 233.452C118.458 240.943 110.082 249.545 101.973 253.845C93.7298 258.285 91.7355 262.169 95.8569 266.331C97.3194 267.996 100.643 268.551 108.354 268.551C150.366 268.551 187.858 251.487 204.343 224.989C210.06 215.694 210.592 212.642 206.604 209.867C202.748 206.954 199.025 208.48 196.101 214.307C188.921 228.874 173.1 241.359 153.025 248.435C146.776 250.516 128.164 254.678 124.707 254.678C123.776 254.678 125.505 251.071 128.297 246.77C131.221 242.469 134.545 235.81 135.609 231.926C137.869 224.157 138.268 213.613 136.406 212.503C135.742 211.948 129.892 210.7 123.377 209.59C105.429 206.26 89.0765 200.989 74.3192 193.774C44.4057 178.93 27.1223 161.866 16.6193 136.756C13.6944 130.097 13.2956 127.045 13.2956 112.478C13.2956 92.6392 15.4228 85.7026 26.3246 69.8872C42.5444 46.3028 70.9955 28.4065 107.556 18.834C177.887 0.243958 259.118 22.8572 291.425 69.8872C301.13 84.0378 304.055 92.7779 304.853 109.703C305.252 121.357 304.853 124.964 302.46 132.594C297.009 149.797 287.038 163.67 270.419 176.988C259.65 185.728 258.055 188.641 262.043 192.803C265.367 196.272 267.893 195.439 277.332 188.086C295.281 174.075 308.575 155.485 314.691 136.062C319.078 121.912 318.813 101.241 314.026 87.0899C300.599 47.1352 260.049 16.1981 205.274 4.26718C191.846 1.35382 184.268 0.521454 164.193 0.105255C150.632 -0.172211 135.742 0.105255 130.956 0.798889Z" fill="#FBC02C"/>
<path d="M299.932 46.8443C303.654 50.8675 307.643 55.8618 308.839 57.9428C310.036 60.0237 311.764 62.1047 312.695 62.3822C316.816 64.047 333.834 76.6715 340.481 82.9145C349.921 92.0707 360.291 108.302 363.614 119.54C366.539 129.667 367.071 145.76 364.811 156.026C363.082 164.35 356.568 177.529 349.921 186.547C332.77 209.854 294.747 230.247 255.527 237.323C249.012 238.433 243.162 239.681 242.498 240.236C240.636 241.346 241.035 251.335 243.295 259.52C244.492 263.543 247.683 270.341 250.608 274.641C254.197 280.052 255.261 282.41 253.931 282.41C248.746 282.41 225.081 276.168 218.035 272.977C209.127 268.953 196.763 260.63 192.908 256.19L190.382 253.277L185.33 256.329C182.405 257.994 180.145 259.797 180.145 260.352C180.145 260.907 183.601 264.653 187.856 268.537C197.029 277.139 215.642 286.989 229.469 290.596C251.671 296.422 279.059 298.226 283.047 294.064C286.903 290.041 285.174 286.017 277.995 282.133C268.955 277.416 261.642 270.341 258.053 262.711C253.267 252.722 253.532 250.78 259.648 249.67C285.307 245.092 313.891 233.438 333.701 219.565C338.088 216.513 345.932 209.576 351.117 204.166C381.296 172.812 387.412 132.303 367.337 96.7876C356.435 77.6427 331.175 56.1393 306.313 45.0408C299.799 41.9887 294.215 39.6302 293.816 39.6302C293.55 39.6302 296.209 42.9598 299.932 46.8443Z" fill="#FBC02C"/>
<path d="M122.188 49.7467L118.332 53.215V113.147V173.079L122.188 176.547C125.245 179.183 127.107 179.877 130.43 179.322C135.748 178.351 224.957 125.355 229.079 120.639C232.801 116.199 232.801 110.095 229.079 105.656C224.957 100.939 135.881 47.9432 130.43 46.9721C127.107 46.4172 125.245 47.1108 122.188 49.7467Z" fill="#FBC02C"/>
</svg>
